<svg height="504pt" viewBox="-58 0 504 504" width="504pt" xmlns="http://www.w3.org/2000/svg">
<path d="m329.335938 496h-222.671876c-27.5 0-50-22.5-50-50v-352c0-27.5 22.5-50 50-50h222.667969c27.5 0 50 22.5 50 50v352c.003907 27.5-22.496093 50-49.996093 50zm0 0" fill="#000000"/>
<path d="m330 58v352c0 27.5-22.5 50-50 50h-222.660156c-27.5 0-50-22.5-50-50v-352c0-27.5 22.5-50 50-50h222.660156c27.5 0 50 22.5 50 50zm0 0" fill="#000000"/>
<path d="m330 58v352c0 27.5-22.5 50-50 50h-192.660156c-27.5 0-50-22.5-50-50v-352c0-27.5 22.5-50 50-50h192.660156c27.5 0 50 22.5 50 50zm0 0" fill="#000000"/>
<path d="m280 8h-30c27.5 0 50 22.5 50 50v352c0 27.5-22.5 50-50 50h30c27.5 0 50-22.5 50-50v-352c0-27.5-22.5-50-50-50zm0 0" fill="#000000"/>
<g fill="#000000">
<path d="m334.390625 36.183594c-8.636719-21.199219-29.457031-36.183594-53.726563-36.183594h-222.664062c-31.980469 0-58 26.019531-58 58v352c0 30.523438 23.707031 55.597656 53.671875 57.820312 8.816406 21.558594 30.089844 36.179688 53.667969 36.179688h222.660156c31.980469 0 58-26.019531 58-58v-352c0-30.503906-23.675781-55.5625-53.609375-57.816406zm-276.390625 415.816406c-23.15625 0-42-18.839844-42-42v-352c0-23.160156 18.84375-42 42-42h222.664062c23.160157 0 42 18.839844 42 42v352c0 23.160156-18.839843 42-42 42zm314-6c0 23.160156-18.84375 42-42 42h-222.660156c-14.691406 0-28.144532-7.855469-35.6875-20h209.011718c31.980469 0 58-26.019531 58-58 0-377.117188.121094-353.097656-.238281-357.148438 19.132813 3.910157 33.574219 20.875 33.574219 41.148438zm0 0"/>
<path d="m224.835938 93.5h-180c-4.421876 0-8 3.582031-8 8s3.578124 8 8 8h180c4.417968 0 8-3.582031 8-8s-3.582032-8-8-8zm0 0"/><path d="m271.34375 123.433594c5.625-.738282 4.34375-.816406 29.644531-51.351563 1.976563-3.953125.378907-8.757812-3.574219-10.734375-3.949218-1.980468-8.753906-.382812-10.734374 3.570313l-18.238282 36.429687-8.125-9.15625c-2.929687-3.308594-7.988281-3.605468-11.289062-.675781-3.304688 2.929687-3.609375 7.988281-.675782 11.289063 16.3125 18.398437 17.386719 21.363281 22.992188 20.628906zm0 0"/>
<path d="m224.835938 164.5h-180c-4.421876 0-8 3.582031-8 8s3.578124 8 8 8h180c4.417968 0 8-3.582031 8-8s-3.582032-8-8-8zm0 0"/><path d="m271.34375 194.433594c2.632812-.347656 4.921875-1.976563 6.113281-4.351563l23.53125-47c1.976563-3.953125.378907-8.757812-3.570312-10.734375-3.949219-1.980468-8.757813-.382812-10.734375 3.570313l-18.242188 36.429687-8.121094-9.15625c-2.933593-3.308594-7.988281-3.605468-11.292968-.675781-3.304688 2.929687-3.605469 7.988281-.675782 11.289063 17.085938 19.265624 17.558594 21.339843 22.992188 20.628906zm0 0"/>
<path d="m224.835938 235.5h-180c-4.421876 0-8 3.582031-8 8s3.578124 8 8 8h180c4.417968 0 8-3.582031 8-8s-3.582032-8-8-8zm0 0"/><path d="m264.316406 262.808594c3.761719 4.242187 10.609375 3.320312 13.136719-1.726563l23.535156-47c1.976563-3.953125.378907-8.757812-3.574219-10.734375-3.949218-1.980468-8.753906-.382812-10.734374 3.570313l-18.238282 36.429687-8.125-9.15625c-2.929687-3.308594-7.988281-3.605468-11.289062-.675781-3.304688 2.929687-3.609375 7.988281-.675782 11.289063zm0 0"/>
<path d="m224.835938 306.5h-180c-4.421876 0-8 3.582031-8 8s3.578124 8 8 8h180c4.417968 0 8-3.582031 8-8s-3.582032-8-8-8zm0 0"/><path d="m271.34375 336.433594c5.625-.738282 4.34375-.816406 29.644531-51.351563 1.976563-3.953125.378907-8.757812-3.574219-10.734375-3.949218-1.980468-8.753906-.382812-10.734374 3.570313l-18.238282 36.429687-8.125-9.15625c-2.929687-3.308594-7.988281-3.605468-11.289062-.675781-3.304688 2.929687-3.609375 7.988281-.675782 11.289063 17.085938 19.265624 17.558594 21.339843 22.992188 20.628906zm0 0"/>
<path d="m224.835938 377.5h-180c-4.421876 0-8 3.582031-8 8s3.578124 8 8 8h180c4.417968 0 8-3.582031 8-8s-3.582032-8-8-8zm0 0"/>
<path d="m297.414062 345.347656c-3.949218-1.980468-8.753906-.382812-10.734374 3.570313l-18.238282 36.429687-8.125-9.15625c-2.929687-3.308594-7.988281-3.605468-11.289062-.675781-3.304688 2.929687-3.609375 7.988281-.675782 11.289063 16.710938 18.84375 17.539063 21.339843 22.992188 20.625 5.625-.738282 4.34375-.816407 29.644531-51.351563 1.976563-3.949219.378907-8.753906-3.574219-10.730469zm0 0"/></g></svg>